# xmcd
#
# Track frame offsets:
#	150
#	2034
#	15913
#	32318
#	52871
#	72141
#	85824
#	101724
#	117608
#	131710
#	148618
#	162743
#	177845
#	194994
#	208160
#	223739
#	239109
#
# Disc length: 3368 seconds
#
# Revision: 0
# Processed by: cddbd v1.5.2PL0 Copyright (c) Steve Scherf et al.
# Submitted via: EasyCDDAExtractor 12.0.4.1
#
DISCID=fc0d2611
DTITLE=Kaye Styles - Main Event
DYEAR=2007
DGENRE=R&B
TTITLE0=Newsflash (Intro)
TTITLE1=Prison Break Anthem (Plankton Maffia Radio Version)
TTITLE2=I Want You Back (Feat. Infamous Mobb)
TTITLE3=Ganja Man (Feat. Dollarman)
TTITLE4=Remember Back In Time
TTITLE5=Don’t Cry (Feat. Johnny Logan) (Frank J Mix)
TTITLE6=Cheat On You (Feat. Black Cherry)
TTITLE7=Don’t You Know
TTITLE8=Lady - Movin’ Too Fast (Feat. Romina Johnson)
TTITLE9=Hands Up (I Want You Back Part 2) (Feat. Infamous Mobb)
TTITLE10=I Love To Party (Frank J Mix)
TTITLE11=One Of A Kind
TTITLE12=Brother Like You
TTITLE13=Thank You (Outro)
TTITLE14=Prison Break Anthem (Original Version)
TTITLE15=Fly Away (Stanley 2006)
TTITLE16=Profile (Eurovision Mix)
EXTD=
EXTT0=
EXTT1=
EXTT2=
EXTT3=
EXTT4=
EXTT5=
EXTT6=
EXTT7=
EXTT8=
EXTT9=
EXTT10=
EXTT11=
EXTT12=
EXTT13=
EXTT14=
EXTT15=
EXTT16=
PLAYORDER=
